<?xml version="1.0" encoding="UTF-8" standalone="no"?>
<!-- Created with Inkscape (http://www.inkscape.org/) -->

<svg
   xmlns:dc="http://purl.org/dc/elements/1.1/"
   xmlns:cc="http://creativecommons.org/ns#"
   xmlns:rdf="http://www.w3.org/1999/02/22-rdf-syntax-ns#"
   xmlns:svg="http://www.w3.org/2000/svg"
   xmlns="http://www.w3.org/2000/svg"
   xmlns:xlink="http://www.w3.org/1999/xlink"
   xmlns:sodipodi="http://sodipodi.sourceforge.net/DTD/sodipodi-0.dtd"
   xmlns:inkscape="http://www.inkscape.org/namespaces/inkscape"
   width="744.09448819"
   height="1052.3622047"
   id="svg2"
   version="1.1"
   inkscape:version="0.48.2 r9819"
   sodipodi:docname="tadpole.svg"
   inkscape:export-filename="/Users/perry/Desktop/gamedev/tadpoles/Assets/Textures/title.png"
   inkscape:export-xdpi="50"
   inkscape:export-ydpi="50">
  <defs
     id="defs4">
    <linearGradient
       id="linearGradient4598">
      <stop
         style="stop-color:#00e724;stop-opacity:1;"
         offset="0"
         id="stop4600" />
      <stop
         id="stop4602"
         offset="0.56302196"
         style="stop-color:#19a32e;stop-opacity:1;" />
      <stop
         style="stop-color:#4ef922;stop-opacity:1;"
         offset="1"
         id="stop4604" />
    </linearGradient>
    <linearGradient
       id="linearGradient4576">
      <stop
         id="stop4578"
         offset="0"
         style="stop-color:#00e724;stop-opacity:1;" />
      <stop
         style="stop-color:#19a32e;stop-opacity:1;"
         offset="0.66666669"
         id="stop4582" />
      <stop
         id="stop4580"
         offset="1"
         style="stop-color:#4ef922;stop-opacity:1;" />
    </linearGradient>
    <linearGradient
       id="linearGradient2987">
      <stop
         style="stop-color:#000000;stop-opacity:1;"
         offset="0"
         id="stop2989" />
      <stop
         style="stop-color:#ffffff;stop-opacity:1;"
         offset="1"
         id="stop2991" />
    </linearGradient>
    <radialGradient
       inkscape:collect="always"
       xlink:href="#linearGradient2987"
       id="radialGradient3880"
       gradientUnits="userSpaceOnUse"
       gradientTransform="matrix(2.8590011,0.06303856,-0.02068648,0.93819793,-1139.5182,240.40649)"
       cx="261.03757"
       cy="576.66028"
       fx="261.03757"
       fy="576.66028"
       r="162.14285" />
    <radialGradient
       inkscape:collect="always"
       xlink:href="#linearGradient2987"
       id="radialGradient3902"
       gradientUnits="userSpaceOnUse"
       gradientTransform="matrix(2.8595314,0.03068327,-0.0100689,0.93837194,-1227.2648,-73.550495)"
       cx="261.03757"
       cy="576.66028"
       fx="261.03757"
       fy="576.66028"
       r="162.14285" />
    <radialGradient
       inkscape:collect="always"
       xlink:href="#linearGradient2987"
       id="radialGradient3917"
       gradientUnits="userSpaceOnUse"
       gradientTransform="matrix(3.6172688,0.07316592,-0.02795433,1.3757546,-208.51042,167.65384)"
       cx="169.48425"
       cy="415.63159"
       fx="169.48425"
       fy="415.63159"
       r="68.185295" />
    <radialGradient
       inkscape:collect="always"
       xlink:href="#linearGradient2987"
       id="radialGradient3919"
       gradientUnits="userSpaceOnUse"
       gradientTransform="matrix(2.8590011,0.06303856,-0.02068648,0.93819793,-500.96687,199.79855)"
       cx="261.03757"
       cy="576.66028"
       fx="261.03757"
       fy="576.66028"
       r="162.14285" />
    <radialGradient
       inkscape:collect="always"
       xlink:href="#linearGradient2987"
       id="radialGradient4154"
       gradientUnits="userSpaceOnUse"
       gradientTransform="matrix(3.6172688,0.07316592,-0.02795433,1.3757546,-186.36756,377.65383)"
       cx="169.48425"
       cy="415.63159"
       fx="169.48425"
       fy="415.63159"
       r="68.185295" />
    <radialGradient
       inkscape:collect="always"
       xlink:href="#linearGradient2987"
       id="radialGradient4160"
       gradientUnits="userSpaceOnUse"
       gradientTransform="matrix(3.6172688,0.07316592,-0.02795433,1.3757546,-196.69806,572.3441)"
       cx="169.48425"
       cy="415.63159"
       fx="169.48425"
       fy="415.63159"
       r="68.185295" />
    <filter
       id="filter4396"
       inkscape:label="Drawing"
       x="0"
       y="0"
       width="1"
       height="1"
       inkscape:menu="Image effects"
       inkscape:menu-tooltip="Give lead pencil or chromolithography or engraving or other effects to images and material filled objects"
       color-interpolation-filters="sRGB">
      <feColorMatrix
         id="feColorMatrix4398"
         type="saturate"
         in="SourceGraphic"
         values="0" />
      <feColorMatrix
         id="feColorMatrix4400"
         values="3 0 0 0 -0.3 0 3 0 0 -0.3 0 0 3 0 -0.3 0 0 0 1 0"
         result="result0" />
      <feTurbulence
         id="feTurbulence4402"
         baseFrequency="0.111"
         numOctaves="2"
         type="fractalNoise" />
      <feColorMatrix
         id="feColorMatrix4404"
         values="0 0 0 0 0 0 0 0 0 0 0 0 0 0 0 0 0 0 255 -200" />
      <feGaussianBlur
         id="feGaussianBlur4406"
         stdDeviation="1"
         result="result1" />
      <feComposite
         id="feComposite4408"
         in2="result0"
         operator="atop"
         result="fbSourceGraphic" />
      <feColorMatrix
         result="fbSourceGraphicAlpha"
         in="fbSourceGraphic"
         values="0 0 0 -1 0 0 0 0 -1 0 0 0 0 -1 0 0 0 0 1 0"
         id="feColorMatrix4410" />
      <feGaussianBlur
         id="feGaussianBlur4412"
         stdDeviation="0.5"
         result="result8"
         in="fbSourceGraphic" />
      <feConvolveMatrix
         id="feConvolveMatrix4414"
         bias="0"
         result="result0"
         preserveAlpha="true"
         targetY="1"
         targetX="1"
         divisor="1"
         in="result8"
         kernelMatrix="1 1 1 1 -8 1 1 1 1 "
         order="3 3" />
      <feColorMatrix
         id="feColorMatrix4416"
         values="0 -6 0 0 1 0 -6 0 0 1 0 -6 0 0 1 0 0 0 1 0 "
         result="result3" />
      <feComposite
         id="feComposite4418"
         in2="result3"
         k3="0.3"
         k1="1"
         operator="arithmetic"
         in="fbSourceGraphic"
         result="fbSourceGraphic" />
      <feGaussianBlur
         id="feGaussianBlur4420"
         stdDeviation="0.01"
         in="fbSourceGraphic"
         result="result7" />
      <feBlend
         id="feBlend4422"
         in2="result7"
         in="result7"
         mode="multiply"
         result="result9" />
      <feComposite
         id="feComposite4424"
         in2="fbSourceGraphic"
         operator="in" />
    </filter>
    <radialGradient
       inkscape:collect="always"
       xlink:href="#linearGradient2987"
       id="radialGradient4521"
       gradientUnits="userSpaceOnUse"
       gradientTransform="matrix(3.6172688,0.07316592,-0.02795433,1.3757546,-46.400975,-384.63079)"
       cx="169.48425"
       cy="415.63159"
       fx="169.48425"
       fy="415.63159"
       r="68.185295" />
    <radialGradient
       inkscape:collect="always"
       xlink:href="#linearGradient2987"
       id="radialGradient4531"
       gradientUnits="userSpaceOnUse"
       gradientTransform="matrix(2.8590011,0.06303856,-0.02068648,0.93819793,-466.109,-348.51281)"
       cx="261.03757"
       cy="576.66028"
       fx="261.03757"
       fy="576.66028"
       r="162.14285" />
    <radialGradient
       inkscape:collect="always"
       xlink:href="#linearGradient2987"
       id="radialGradient4564"
       gradientUnits="userSpaceOnUse"
       gradientTransform="matrix(2.8590011,0.06303856,-0.02068648,0.93819793,-500.96687,199.79855)"
       cx="261.03757"
       cy="576.66028"
       fx="261.03757"
       fy="576.66028"
       r="162.14285" />
    <radialGradient
       inkscape:collect="always"
       xlink:href="#linearGradient2987"
       id="radialGradient4567"
       gradientUnits="userSpaceOnUse"
       gradientTransform="matrix(3.6172688,0.07316592,-0.02795433,1.3757546,-208.51042,167.65384)"
       cx="169.48425"
       cy="415.63159"
       fx="169.48425"
       fy="415.63159"
       r="68.185295" />
    <linearGradient
       inkscape:collect="always"
       xlink:href="#linearGradient4576"
       id="linearGradient4574"
       x1="943.28687"
       y1="528.9928"
       x2="1050.6262"
       y2="528.9928"
       gradientUnits="userSpaceOnUse" />
    <linearGradient
       inkscape:collect="always"
       xlink:href="#linearGradient4576"
       id="linearGradient4588"
       gradientUnits="userSpaceOnUse"
       x1="943.28687"
       y1="528.9928"
       x2="1050.6262"
       y2="528.9928"
       gradientTransform="translate(274.95033,-1.5893083)" />
    <linearGradient
       inkscape:collect="always"
       xlink:href="#linearGradient4598"
       id="linearGradient4594"
       gradientUnits="userSpaceOnUse"
       x1="943.28687"
       y1="528.9928"
       x2="1050.6262"
       y2="528.9928"
       gradientTransform="matrix(0.99941593,0.03417288,-0.03417288,0.99941593,32.96226,-101.35022)" />
    <linearGradient
       inkscape:collect="always"
       xlink:href="#linearGradient4576"
       id="linearGradient4596"
       gradientUnits="userSpaceOnUse"
       gradientTransform="translate(20.661004,-3.1786166)"
       x1="943.28687"
       y1="528.9928"
       x2="1050.6262"
       y2="528.9928" />
    <filter
       y="-.25"
       x="-.25"
       height="1.5"
       width="1.5"
       inkscape:label="Drop shadow"
       id="filter2989">
      <feGaussianBlur
         result="blur"
         stdDeviation="2"
         in="SourceAlpha"
         id="feGaussianBlur2991" />
      <feColorMatrix
         values="1 0 0 0 0 0 1 0 0 0 0 0 1 0 0 0 0 0 0.5 0 "
         type="matrix"
         result="bluralpha"
         id="feColorMatrix2993" />
      <feOffset
         result="offsetBlur"
         dy="4"
         dx="4"
         in="bluralpha"
         id="feOffset2995" />
      <feMerge
         id="feMerge2997">
        <feMergeNode
           in="offsetBlur"
           id="feMergeNode2999" />
        <feMergeNode
           in="SourceGraphic"
           id="feMergeNode3001" />
      </feMerge>
    </filter>
    <filter
       id="filter4357"
       inkscape:label="Drop shadow"
       width="1.5"
       height="1.5"
       x="-.25"
       y="-.25">
      <feGaussianBlur
         id="feGaussianBlur4359"
         in="SourceAlpha"
         stdDeviation="3"
         result="blur" />
      <feColorMatrix
         id="feColorMatrix4361"
         result="bluralpha"
         type="matrix"
         values="1 0 0 0 0 0 1 0 0 0 0 0 1 0 0 0 0 0 0.5 0 " />
      <feOffset
         id="feOffset4363"
         in="bluralpha"
         dx="7.7"
         dy="6.3"
         result="offsetBlur" />
      <feMerge
         id="feMerge4365">
        <feMergeNode
           id="feMergeNode4367"
           in="offsetBlur" />
        <feMergeNode
           id="feMergeNode4369"
           in="SourceGraphic" />
      </feMerge>
    </filter>
  </defs>
  <sodipodi:namedview
     id="base"
     pagecolor="#ffffff"
     bordercolor="#666666"
     borderopacity="1.0"
     inkscape:pageopacity="0.0"
     inkscape:pageshadow="2"
     inkscape:zoom="0.4449148"
     inkscape:cx="-724.11704"
     inkscape:cy="1481.6827"
     inkscape:document-units="px"
     inkscape:current-layer="layer1"
     showgrid="false"
     inkscape:window-width="1727"
     inkscape:window-height="1009"
     inkscape:window-x="55"
     inkscape:window-y="75"
     inkscape:window-maximized="0" />
  <metadata
     id="metadata7">
    <rdf:RDF>
      <cc:Work
         rdf:about="">
        <dc:format>image/svg+xml</dc:format>
        <dc:type
           rdf:resource="http://purl.org/dc/dcmitype/StillImage" />
        <dc:title></dc:title>
      </cc:Work>
    </rdf:RDF>
  </metadata>
  <g
     inkscape:label="Layer 1"
     inkscape:groupmode="layer"
     id="layer1">
    <path
       sodipodi:nodetypes="sssssss"
       inkscape:connector-curvature="0"
       id="path3878"
       d="m -47.2835,792.16912 c 0,24.65557 -199.57703,28.40557 -228.91912,44.5631 -29.34208,16.15754 -44.16351,46.15118 -88.93802,46.15118 -89.54902,0 -162.14285,-39.97457 -162.14285,-89.28571 0,-49.31114 58.30812,-77.85714 147.85714,-77.85714 44.77451,0 61.02451,1.42222 90.36659,17.57975 29.34209,16.15754 241.77626,34.19325 241.77626,58.84882 z"
       style="fill:url(#radialGradient3880);fill-opacity:1" />
    <path
       style="fill:url(#radialGradient3902);fill-opacity:1"
       d="m -363.72624,412.66961 1.17153,103.52462 c 1.71865,-1.12675 3.48534,-2.18597 5.30769,-3.21651 29.15737,-16.48853 228.66632,-22.49587 228.38734,-47.14986 -0.26162,-23.11792 -187.22775,-38.30879 -234.86656,-53.15825 z"
       id="path3885"
       inkscape:connector-curvature="0"
       inkscape:transform-center-x="-102.97033"
       inkscape:transform-center-y="4.6879888" />
    <path
       inkscape:transform-center-y="2.081895"
       inkscape:transform-center-x="-63.847601"
       sodipodi:nodetypes="sssssss"
       inkscape:connector-curvature="0"
       id="path3921"
       d="m 592.62562,757.1609 c -0.84584,25.64934 -160.27585,30.37908 -182.62951,45.74045 -22.35368,15.36134 -79.56282,25.1644 -112.82754,22.95564 -66.52946,-4.41747 -9.05264,-31.12775 -7.36098,-82.42646 1.69166,-51.2987 -46.49804,-53.19905 35.80151,-79.556 40.00937,-12.81325 81.81292,26.96278 103.058,45.21902 21.24509,18.25625 164.80434,22.418 163.95852,48.06735 z"
       style="fill:#00ff00;fill-opacity:1" />
    <path
       style="fill:url(#radialGradient4564);fill-opacity:1"
       d="m 259.12944,675.14545 c -89.54902,0 -147.875,28.53261 -147.875,77.84375 0,49.31114 72.60723,89.28125 162.15625,89.28125 41.9761,0 57.62432,-26.36015 83.59375,-42.96875 l 0,-103.53125 c -3.15408,-1.02245 -5.6718,-2.05578 -7.5,-3.0625 -29.34208,-16.15753 -45.60049,-17.5625 -90.375,-17.5625 z"
       id="path2985"
       inkscape:connector-curvature="0" />
    <path
       style="fill:url(#radialGradient4567);fill-opacity:1"
       d="m 592.62562,753.9215 c -0.84584,18.0758 -160.27585,21.40897 -182.62951,32.23455 -22.35368,10.82555 -79.56282,17.73404 -112.82754,16.17747 -66.52946,-3.11312 -9.05263,-21.93658 -7.36098,-58.08819 1.69166,-36.15159 -12.1565,-52.13114 54.37294,-49.01801 33.26471,1.55656 63.24149,11.95413 84.48657,24.81981 21.24509,12.86568 164.80434,15.79857 163.95852,33.87437 z"
       id="path3904"
       inkscape:connector-curvature="0"
       sodipodi:nodetypes="sssssss"
       inkscape:transform-center-x="-63.847601"
       inkscape:transform-center-y="1.4671699" />
    <path
       sodipodi:type="arc"
       style="fill:#d7d6d7;fill-opacity:1"
       id="path3766"
       sodipodi:cx="-231.42857"
       sodipodi:cy="420.93362"
       sodipodi:rx="40"
       sodipodi:ry="41.42857"
       d="m -191.42857,420.93362 a 40,41.42857 0 1 1 -80,0 40,41.42857 0 1 1 80,0 z"
       transform="matrix(1,0,0,-1,404.12498,1126.0663)" />
    <path
       sodipodi:type="arc"
       style="fill:#000000;fill-opacity:1"
       id="path3845"
       sodipodi:cx="127.78429"
       sodipodi:cy="496.27319"
       sodipodi:rx="16.667517"
       sodipodi:ry="17.67767"
       d="m 144.4518,496.27319 a 16.667517,17.67767 0 1 1 -33.33503,0 16.667517,17.67767 0 1 1 33.33503,0 z"
       transform="matrix(0.63636363,0,0,0.6,64.070605,409.564)" />
    <path
       style="fill:none;stroke:#000000;stroke-width:3.4000001;stroke-linecap:butt;stroke-linejoin:miter;stroke-miterlimit:4;stroke-opacity:1;stroke-dasharray:none"
       d="m 130.95733,794.38381 c 18.01951,-2.11983 9.02712,-16.38252 17.76387,-18.50236"
       id="path4113"
       inkscape:connector-curvature="0"
       sodipodi:nodetypes="cc" />
    <path
       style="fill:#aa0000;fill-opacity:1"
       d="m 614.76848,967.1609 c -0.84584,25.64934 -160.27585,30.37908 -182.62951,45.7405 -22.35368,15.3613 -79.56282,25.1644 -112.82754,22.9556 -66.52946,-4.4175 -9.05264,-31.1278 -7.36098,-82.42647 1.69166,-51.2987 -46.49804,-53.19905 35.80151,-79.556 40.00937,-12.81325 81.81292,26.96278 103.058,45.21902 21.24509,18.25625 164.80434,22.418 163.95852,48.06735 z"
       id="path4150"
       inkscape:connector-curvature="0"
       sodipodi:nodetypes="sssssss"
       inkscape:transform-center-x="-63.847601"
       inkscape:transform-center-y="2.081895" />
    <path
       inkscape:transform-center-y="1.4671699"
       inkscape:transform-center-x="-63.847601"
       sodipodi:nodetypes="sssssss"
       inkscape:connector-curvature="0"
       id="path4152"
       d="m 614.76848,963.9215 c -0.84584,18.0758 -160.27585,21.40897 -182.62951,32.23455 -22.35368,10.82555 -79.56282,17.73405 -112.82754,16.17745 -66.52946,-3.1131 -9.05263,-21.93656 -7.36098,-58.08817 1.69166,-36.15159 -12.1565,-52.13114 54.37294,-49.01801 33.26471,1.55656 63.24149,11.95413 84.48657,24.81981 21.24509,12.86568 164.80434,15.79857 163.95852,33.87437 z"
       style="fill:url(#radialGradient4154);fill-opacity:1" />
    <path
       inkscape:transform-center-y="2.081895"
       inkscape:transform-center-x="-63.847601"
       sodipodi:nodetypes="sssssss"
       inkscape:connector-curvature="0"
       id="path4156"
       d="m 604.43798,1161.8512 c -0.84584,25.6494 -160.27585,30.3791 -182.62951,45.7405 -22.35368,15.3613 -79.56282,25.1644 -112.82754,22.9556 -66.52946,-4.4175 -9.05264,-31.1277 -7.36098,-82.4265 1.69166,-51.2987 -46.49804,-53.199 35.80151,-79.556 40.00937,-12.8132 81.81292,26.9628 103.058,45.219 21.24509,18.2563 164.80434,22.418 163.95852,48.0674 z"
       style="fill:#0000ff;fill-opacity:1" />
    <path
       style="fill:url(#radialGradient4160);fill-opacity:1"
       d="m 604.43798,1158.6118 c -0.84584,18.0758 -160.27585,21.4089 -182.62951,32.2346 -22.35368,10.8255 -79.56282,17.734 -112.82754,16.1774 -66.52946,-3.1131 -9.05263,-21.9365 -7.36098,-58.0882 1.69166,-36.1516 -12.1565,-52.1311 54.37294,-49.018 33.26471,1.5566 63.24149,11.9541 84.48657,24.8198 21.24509,12.8657 164.80434,15.7986 163.95852,33.8744 z"
       id="path4158"
       inkscape:connector-curvature="0"
       sodipodi:nodetypes="sssssss"
       inkscape:transform-center-x="-63.847601"
       inkscape:transform-center-y="1.4671699" />
    <path
       style="fill:#000000;fill-opacity:1;stroke-width:3.4000001;stroke-miterlimit:4;stroke-dasharray:none;filter:url(#filter4396)"
       id="path4162"
       d="m -264.21982,108.0162 c -3.52694,3.21958 -5.98577,7.47302 -7.06307,12.10502 -0.748,8.50098 -0.22265,-7.44955 0.10956,-11.15229 0.0504,-0.56224 0.29047,1.15763 0.70662,1.53906 0.44022,0.40351 1.08408,0.54066 1.67264,0.64173 1.80162,0.30937 4.60096,0.0777 6.35384,4.2e-4 6.01422,-0.61281 10.55813,-3.56922 12.02241,-9.5569 -0.59247,-7.456646 0.32435,3.13661 -0.54543,11.29567 -0.0673,0.63125 -0.50054,-1.17704 -0.86571,-1.69632 -1.18521,-1.68541 -2.89756,-2.38815 -4.72784,-3.12196 -3.85142,-1.22102 -7.7263,-0.27269 -11.13659,1.69891 -2.34173,1.1084 -3.89612,3.29632 -4.4988,5.81611 -0.13906,0.58141 -0.16709,2.38385 -0.16241,1.78606 0.0363,-4.63556 0.17151,-9.26982 0.25727,-13.90473 0.52636,2.29766 2.45044,2.45143 4.34113,3.12801 1.91971,0.68696 1.88406,0.83598 3.51396,2.0167 3.37442,3.09509 5.66902,6.97477 7.17937,11.25539 1.33794,4.4946 1.51414,9.1969 1.63537,13.85063 0.11052,9.63598 0.0398,19.2732 0.005,28.90962 -0.0145,4.70299 -0.0195,9.406 -0.0226,14.10901 0.0638,5.10836 -1.15189,10.12117 -1.71922,15.1857 -0.47524,4.79808 -0.49512,9.62395 -0.53257,14.44051 -0.0126,3.41488 -0.009,1.71708 -0.0124,5.09339 2.8e-4,0.81884 7.7e-4,3.27536 8.2e-4,2.45652 0.002,-24.61142 8e-4,-12.32782 0.003,-6.94689 -0.22091,10.78566 0.76789,21.68293 -0.72903,32.39392 -0.51881,5.2291 -3.52755,9.774 -7.11788,13.46631 -4.6741,4.81625 -11.33506,5.58527 -17.67093,6.34752 -5.95476,0.5321 -12.04372,1.23856 -17.74364,-0.89488 -4.00108,-2.14839 -7.58282,-5.01912 -11.33271,-7.58639 -3.90261,-2.29628 -7.1833,-5.36573 -9.76572,-9.06595 -2.50554,-4.14393 -2.91219,-8.89914 -3.17366,-13.61696 0.0944,-9.98315 -1.48672,-20.22731 0.26588,-30.06567 1.44232,-4.05107 5.01323,-3.78988 8.41062,-2.36403 0.49863,0.26005 0.99725,0.5201 1.49587,0.78015 0,0 -0.75978,15.56814 -0.75978,15.56814 l 0,0 c -0.47483,-0.25624 -0.94965,-0.51248 -1.42448,-0.76872 -2.78143,-1.50948 -4.89367,-1.27183 -5.4952,2.17021 -0.473,5.32135 -0.18258,15.79867 -0.19852,-8.38607 -0.006,-8.48539 -0.13482,15.99275 0.0611,7.74459 0.16197,4.5879 0.30745,9.2722 2.36341,13.48189 2.23545,3.75052 5.39145,6.80692 9.16661,9.02076 3.62643,2.58382 7.27505,5.15798 10.99023,7.58083 5.29478,2.39616 11.32639,1.34485 16.95343,0.99047 6.06864,-0.74669 12.27762,-1.5922 16.57865,-6.39729 3.32402,-3.8051 5.80254,-8.18419 6.17365,-13.32334 0.85365,-7.06103 0.27913,-3.38565 0.53844,9.63199 0.15733,7.89807 -0.14557,-19.42079 -0.005,-11.42743 -0.0153,-10.39863 -0.0452,-20.79746 0.0178,-31.19595 0.0577,-4.8367 0.11614,-9.68407 0.6965,-14.49287 0.64301,-5.02839 1.74644,-10.0345 1.54099,-15.13071 10e-4,-4.71402 0.003,-9.42806 0.0225,-14.14205 0.006,-1.50091 0.012,-3.00182 0.0173,-4.50273 0.003,-0.75196 0.006,-3.00783 0.007,-2.25587 0.0257,24.60829 0.0119,13.96155 -0.004,8.53615 -0.0637,-4.61612 -0.1343,-9.27429 -1.18969,-13.79308 -1.20807,-4.22382 -3.19553,-7.95675 -6.28274,-11.12617 -3.1462,-2.87544 -6.49316,-1.86715 -9.01554,-5.2372 -0.0987,-8.96584 -3.3853,-19.792498 5.85865,-24.680082 3.91241,-1.936879 8.15632,-2.975496 12.45782,-1.690476 10.92613,3.868491 9.38323,12.010128 7.51419,24.454208 -2.52068,6.0087 -7.41356,9.01591 -13.8831,9.58558 -2.79987,0.14297 -7.05266,0.90001 -9.67465,-0.57801 -4.27605,-2.41043 -2.44016,-15.46945 -1.24213,-21.26219 1.5914,-4.71299 4.17752,-9.024246 8.01329,-12.263079 0,0 1.05048,15.545109 1.05048,15.545109 z"
       inkscape:connector-curvature="0" />
    <path
       id="path4512"
       style="fill:none;stroke:#000000;stroke-width:13.43743324;stroke-linecap:butt;stroke-linejoin:miter;stroke-miterlimit:4;stroke-opacity:1;stroke-dasharray:none"
       d="m 95.782846,136.42378 16.427874,152.77914 c 0,0 -31.067854,59.45568 -65.711444,36.14128 -64.57605,-43.45825 -13.14232,-96.92439 -13.14232,-96.92439 l 9.85673,27.92737 M 115.4963,111.78196 c 0,10.88744 -8.82603,19.71345 -19.713454,19.71345 -10.88744,0 -19.71343,-8.82601 -19.71343,-19.71345 0,-10.88742 8.82599,-19.71343 19.71343,-19.71343 10.887424,0 19.713454,8.82601 19.713454,19.71343 z"
       inkscape:connector-curvature="0"
       inkscape:export-filename="/Users/perry/Desktop/gamedev/tadpoles/raw_assets/hook.png"
       inkscape:export-xdpi="307"
       inkscape:export-ydpi="307" />
    <path
       style="fill:#dcdcdc;fill-opacity:1"
       d="m 740.43129,397.18258 c -0.84584,25.64934 -160.27585,30.37908 -182.62951,45.74045 -22.35368,15.36134 -79.56282,25.1644 -112.82754,22.95564 -66.52946,-4.41747 -9.05264,-31.12775 -7.36098,-82.42646 1.69166,-51.2987 -46.49804,-53.19905 35.80151,-79.556 40.00937,-12.81325 81.81292,26.96278 103.058,45.21902 21.24509,18.25625 164.80434,22.418 163.95852,48.06735 z"
       id="path4517"
       inkscape:connector-curvature="0"
       sodipodi:nodetypes="sssssss"
       inkscape:transform-center-x="-63.847601"
       inkscape:transform-center-y="2.081895"
       inkscape:export-filename="/Users/perry/Desktop/gamedev/tadpoles/raw_assets/fin.png"
       inkscape:export-xdpi="307"
       inkscape:export-ydpi="307" />
    <path
       inkscape:transform-center-y="1.4671699"
       inkscape:transform-center-x="-63.847601"
       sodipodi:nodetypes="sssssss"
       inkscape:connector-curvature="0"
       id="path4519"
       d="m 754.73507,201.63687 c -0.84584,18.0758 -160.27585,21.40897 -182.62951,32.23455 -22.35368,10.82555 -79.56282,17.73404 -112.82754,16.17747 -66.52946,-3.11312 -9.05263,-21.93658 -7.36098,-58.08819 1.69166,-36.15159 -12.1565,-52.13114 54.37294,-49.01801 33.26471,1.55656 63.24149,11.95413 84.48657,24.81981 21.24509,12.86568 164.80434,15.79857 163.95852,33.87437 z"
       style="fill:url(#radialGradient4521);fill-opacity:1"
       inkscape:export-filename="/Users/perry/Desktop/gamedev/tadpoles/raw_assets/tail.png"
       inkscape:export-xdpi="307"
       inkscape:export-ydpi="307" />
    <path
       transform="matrix(0.63636363,0,0,0.6,617.14989,234.74009)"
       d="m 144.4518,496.27319 a 16.667517,17.67767 0 1 1 -33.33503,0 16.667517,17.67767 0 1 1 33.33503,0 z"
       sodipodi:ry="17.67767"
       sodipodi:rx="16.667517"
       sodipodi:cy="496.27319"
       sodipodi:cx="127.78429"
       id="path4523"
       style="fill:#000000;fill-opacity:1"
       sodipodi:type="arc"
       inkscape:export-filename="/Users/perry/Desktop/gamedev/tadpoles/raw_assets/pupil.png"
       inkscape:export-xdpi="307"
       inkscape:export-ydpi="307" />
    <path
       transform="matrix(1,0,0,-1,814.96118,963.95683)"
       d="m -191.42857,420.93362 a 40,41.42857 0 1 1 -80,0 40,41.42857 0 1 1 80,0 z"
       sodipodi:ry="41.42857"
       sodipodi:rx="40"
       sodipodi:cy="420.93362"
       sodipodi:cx="-231.42857"
       id="path4525"
       style="fill:#d7d6d7;fill-opacity:1"
       sodipodi:type="arc"
       inkscape:export-filename="/Users/perry/Desktop/gamedev/tadpoles/raw_assets/eye.png"
       inkscape:export-xdpi="307"
       inkscape:export-ydpi="307" />
    <path
       id="path4527"
       d="m 293.98731,126.83409 c -89.54902,0 -147.875,28.53261 -147.875,77.84375 0,49.31114 72.60723,89.28125 162.15625,89.28125 41.9761,0 57.62432,-26.36015 83.59375,-42.96875 l 0,-103.53125 c -3.15408,-1.02245 -5.6718,-2.05578 -7.5,-3.0625 -29.34208,-16.15753 -45.60049,-17.5625 -90.375,-17.5625 z"
       style="fill:url(#radialGradient4531);fill-opacity:1"
       inkscape:connector-curvature="0"
       inkscape:export-filename="/Users/perry/Desktop/gamedev/tadpoles/Assets/Textures/head.png"
       inkscape:export-xdpi="307"
       inkscape:export-ydpi="307" />
    <path
       sodipodi:nodetypes="cc"
       inkscape:connector-curvature="0"
       id="path4529"
       d="m 165.8152,382.07245 c 18.01951,-2.11983 9.02712,-16.38252 17.76387,-18.50236"
       style="fill:none;stroke:#000000;stroke-width:10.1;stroke-linecap:butt;stroke-linejoin:miter;stroke-miterlimit:4;stroke-opacity:1;stroke-dasharray:none"
       inkscape:export-filename="/Users/perry/Desktop/gamedev/tadpoles/Assets/Textures/mouth.png"
       inkscape:export-xdpi="307"
       inkscape:export-ydpi="307" />
    <path
       style="fill:url(#linearGradient4594);fill-opacity:1"
       d="m 1037.3507,-51.654609 c -5.7763,-0.199815 -2.0938,187.305219 -27.1111,304.563939 -19.40317,90.94437 -67.98311,154.17575 -63.49068,241.7572 15.74955,1.06966 -13.4965,44.78298 39.65002,39.52146 l 39.53726,1.3519 28.8532,-11.73533 c 38.4305,-2.67259 42.2023,-193.92188 32.6708,-284.26419 -11.9518,-113.28543 -37.789,-290.768564 -50.1095,-291.194979 z"
       id="path4570"
       inkscape:connector-curvature="0"
       sodipodi:nodetypes="csccccsc"
       inkscape:export-filename="/Users/perry/Desktop/gamedev/tadpoles/Assets/Textures/weed1top.png"
       inkscape:export-xdpi="307"
       inkscape:export-ydpi="307" />
    <path
       style="fill:url(#linearGradient4596);fill-opacity:1"
       d="m 953.52317,570.81694 c 3.3546,27.28492 12.1979,56.67812 29.0937,89.53125 73.27413,142.47767 -10.9591,246.97242 -18.6562,318.6875 l 152.78123,0.0312 c 11.6075,-52.91127 -8.5647,-332.8912 -27,-388.03125 -1.8009,-5.38663 -2.9685,-12.20012 -3.6874,-20.21875 l -132.53133,0 z"
       id="path4586"
       inkscape:connector-curvature="0"
       inkscape:export-filename="/Users/perry/Desktop/gamedev/tadpoles/Assets/Textures/weed1bottom.png"
       inkscape:export-xdpi="307"
       inkscape:export-ydpi="307" />
    <g
       id="layer1-1"
       inkscape:label="Layer 1"
       transform="matrix(2.3899067,0,0,2.4084777,-549.47129,-1004.9335)"
       inkscape:export-filename="/Users/perry/Desktop/gamedev/tadpoles/Assets/Textures/title.png"
       inkscape:export-xdpi="50"
       inkscape:export-ydpi="50">
      <g
         id="g3788">
        <text
           xml:space="preserve"
           style="font-size:72px;font-style:normal;font-variant:normal;font-weight:normal;font-stretch:normal;text-align:start;line-height:125%;letter-spacing:0px;word-spacing:0px;writing-mode:lr-tb;text-anchor:start;fill:#ff2a2a;fill-opacity:1;stroke:#000000;stroke-opacity:1;filter:url(#filter2989);font-family:Casual;-inkscape-font-specification:Casual"
           id="text2985"
           sodipodi:linespacing="125%"
           transform="translate(100,-49.999997)"><textPath
             xlink:href="#path3003"
             id="textPath3005">Catching</textPath></text>
        <path
           style="fill:none;stroke:none"
           d="M 60.925026,236.95977 C 163.43287,183.2316 161.45998,237.06289 221.56742,240.0626 289.91282,243.47342 550.59091,96.614828 550.59091,96.614828"
           id="path3003"
           inkscape:connector-curvature="0"
           sodipodi:nodetypes="csc" />
        <text
           sodipodi:linespacing="125%"
           id="text3776"
           style="font-size:72px;font-style:normal;font-variant:normal;font-weight:normal;font-stretch:normal;text-align:start;line-height:125%;letter-spacing:0px;word-spacing:0px;writing-mode:lr-tb;text-anchor:start;fill:#ff2a2a;fill-opacity:1;stroke:#000000;stroke-opacity:1;filter:url(#filter2989);font-family:Casual;-inkscape-font-specification:Casual"
           xml:space="preserve"
           transform="translate(112.85714,48.571429)"><textPath
             id="textPath3778"
             xlink:href="#path3003">Tadpoles !</textPath></text>
      </g>
    </g>
    <text
       xml:space="preserve"
       style="font-size:144px;font-style:normal;font-variant:normal;font-weight:normal;font-stretch:normal;text-align:start;line-height:125%;letter-spacing:0px;word-spacing:0px;writing-mode:lr-tb;text-anchor:start;fill:#ffcc00;fill-opacity:1;stroke:none;filter:url(#filter4357);font-family:Casual;-inkscape-font-specification:Casual"
       x="-1013.6772"
       y="-109.65804"
       id="text4227"
       sodipodi:linespacing="125%"
       transform="matrix(1.4659248,0,0,1.4310034,285.25836,33.919127)"
       inkscape:export-filename="/Users/perry/Desktop/gamedev/tadpoles/Assets/Textures/start.png"
       inkscape:export-xdpi="50"
       inkscape:export-ydpi="50"><tspan
         sodipodi:role="line"
         id="tspan4229"
         x="-1013.6772"
         y="-109.65804">Start</tspan></text>
    <text
       inkscape:export-ydpi="50"
       inkscape:export-xdpi="50"
       inkscape:export-filename="/Users/perry/Desktop/gamedev/tadpoles/Assets/Textures/start_hover.png"
       transform="matrix(1.4659248,0,0,1.4310034,283.01074,326.1099)"
       sodipodi:linespacing="125%"
       id="text4371"
       y="-109.65804"
       x="-1013.6772"
       style="font-size:144px;font-style:normal;font-variant:normal;font-weight:normal;font-stretch:normal;text-align:start;line-height:125%;letter-spacing:0px;word-spacing:0px;writing-mode:lr-tb;text-anchor:start;fill:#80ffe6;fill-opacity:1;stroke:none;filter:url(#filter4357);font-family:Casual;-inkscape-font-specification:Casual"
       xml:space="preserve"><tspan
         y="-109.65804"
         x="-1013.6772"
         id="tspan4373"
         sodipodi:role="line">Start</tspan></text>
    <text
       inkscape:export-ydpi="50"
       inkscape:export-xdpi="50"
       inkscape:export-filename="/Users/perry/Desktop/gamedev/tadpoles/Assets/Textures/playagain.png"
       transform="matrix(1.4659248,0,0,1.4310034,-537.37105,-572.93864)"
       sodipodi:linespacing="125%"
       id="text3096"
       y="-109.65804"
       x="-1013.6772"
       style="font-size:144px;font-style:normal;font-variant:normal;font-weight:normal;font-stretch:normal;text-align:start;line-height:125%;letter-spacing:0px;word-spacing:0px;writing-mode:lr-tb;text-anchor:start;fill:#ff8080;fill-opacity:1;stroke:none;filter:url(#filter4357);font-family:Casual;-inkscape-font-specification:Casual"
       xml:space="preserve"><tspan
         y="-109.65804"
         x="-1013.6772"
         id="tspan3098"
         sodipodi:role="line">Play again ?</tspan></text>
    <text
       xml:space="preserve"
       style="font-size:144px;font-style:normal;font-variant:normal;font-weight:normal;font-stretch:normal;text-align:start;line-height:125%;letter-spacing:0px;word-spacing:0px;writing-mode:lr-tb;text-anchor:start;fill:#aa0000;fill-opacity:1;stroke:none;filter:url(#filter4357);font-family:Casual;-inkscape-font-specification:Casual"
       x="-1013.6772"
       y="-109.65804"
       id="text3100"
       sodipodi:linespacing="125%"
       transform="matrix(1.4659248,0,0,1.4310034,-526.13294,-312.21456)"
       inkscape:export-filename="/Users/perry/Desktop/gamedev/tadpoles/Assets/Textures/playagain_hover.png"
       inkscape:export-xdpi="50"
       inkscape:export-ydpi="50"><tspan
         sodipodi:role="line"
         id="tspan3102"
         x="-1013.6772"
         y="-109.65804">Play again ?</tspan></text>
  </g>
</svg>
